# xmcd
#
# Track frame offsets:
#	150
#	16713
#	37999
#	51443
#	66394
#	86574
#	104245
#	111021
#	132890
#	155667
#
# Disc length: 2184 seconds
#
# Revision: 0
# Processed by: cddbd v1.4PL0 Copyright (c) Steve Scherf et al.
# Submitted via: dBpowerAMP V4.0
#
DISCID=8608860a
DTITLE=Jeremiah Olsen - You Are
DYEAR=1900
DGENRE=
TTITLE0=Ain't Nothing Gonna Come My Way
TTITLE1=You Are
TTITLE2=Not Today
TTITLE3=Free
TTITLE4=Sometimes I Cry
TTITLE5=Grace Falls
TTITLE6=Stupid
TTITLE7=Fall
TTITLE8=Someday
TTITLE9=If Not for You
EXTD=
EXTT0=
EXTT1=
EXTT2=
EXTT3=
EXTT4=
EXTT5=
EXTT6=
EXTT7=
EXTT8=
EXTT9=
PLAYORDER=
